<?xml version="1.0" encoding="UTF-8" standalone="no"?>
<!-- Created with Inkscape (http://www.inkscape.org/) -->

<svg
   xmlns:dc="http://purl.org/dc/elements/1.1/"
   xmlns:cc="http://creativecommons.org/ns#"
   xmlns:rdf="http://www.w3.org/1999/02/22-rdf-syntax-ns#"
   xmlns:svg="http://www.w3.org/2000/svg"
   xmlns="http://www.w3.org/2000/svg"
   xmlns:sodipodi="http://sodipodi.sourceforge.net/DTD/sodipodi-0.dtd"
   xmlns:inkscape="http://www.inkscape.org/namespaces/inkscape"
   width="40mm"
   height="40mm"
   viewBox="0 0 40 40"
   version="1.1"
   id="svg8"
   inkscape:version="0.92.1 unknown"
   sodipodi:docname="cloud-line.svg">
  <defs
     id="defs2" />
  <sodipodi:namedview
     id="base"
     pagecolor="#ffffff"
     bordercolor="#666666"
     borderopacity="1.0"
     inkscape:pageopacity="0.0"
     inkscape:pageshadow="2"
     inkscape:zoom="1.4"
     inkscape:cx="9.2154192"
     inkscape:cy="31.497991"
     inkscape:document-units="mm"
     inkscape:current-layer="layer1"
     showgrid="false"
     inkscape:window-width="2450"
     inkscape:window-height="1564"
     inkscape:window-x="110"
     inkscape:window-y="36"
     inkscape:window-maximized="1" />
  <metadata
     id="metadata5">
    <rdf:RDF>
      <cc:Work
         rdf:about="">
        <dc:format>image/svg+xml</dc:format>
        <dc:type
           rdf:resource="http://purl.org/dc/dcmitype/StillImage" />
        <dc:title></dc:title>
      </cc:Work>
    </rdf:RDF>
  </metadata>
  <g
     inkscape:label="圖層 1"
     inkscape:groupmode="layer"
     id="layer1"
     transform="translate(0,-257)">
    <g
       id="g4666"
       transform="translate(-34.534133,110.81839)"
       style="fill:#ffffff;fill-opacity:1">
      <path
         inkscape:connector-curvature="0"
         id="rect4666-3-5"
         d="m 59.447266,155.38086 c -3.348017,0.002 -6.176273,2.26813 -7.101563,5.42578 -1.036962,-0.87642 -2.296365,-1.45506 -3.669922,-1.45703 a 0.50005,0.50005 0 0 0 -0.002,0 c -3.031468,0 -5.454802,2.36823 -5.699219,5.33789 -3.300814,0.12285 -5.949218,2.79397 -5.949218,6.125 0,3.40936 2.760612,6.16992 6.169921,6.16992 H 65.873 c 3.409308,0 6.169922,-2.76056 6.169922,-6.16992 0,-3.14736 -2.381155,-5.65945 -5.425781,-6.03906 0.166515,-0.62257 0.320089,-1.25052 0.322265,-1.89649 a 0.50005,0.50005 0 0 0 0,-0.002 c 1.78e-4,-4.13235 -3.359833,-7.49432 -7.492187,-7.49414 z m 0,1 c 3.591883,-1.6e-4 6.492342,2.90226 6.492187,6.49414 -0.0026,0.71766 -0.123752,1.42953 -0.359375,2.10742 a 0.50005,0.50005 0 0 0 0.457031,0.66406 c 2.794068,0.0863 5.00586,2.34854 5.00586,5.16602 0,2.8726 -2.29727,5.16992 -5.169922,5.16992 H 43.195312 c -2.872654,0 -5.169921,-2.29732 -5.169921,-5.16992 0,-2.8726 2.297323,-5.16992 5.169921,-5.16992 h 0.1875 a 0.50005,0.50005 0 0 0 0.5,-0.5 c -1e-6,-2.65229 2.138729,-4.79297 4.791016,-4.79297 1.346607,0.002 2.630519,0.57069 3.53711,1.56641 a 0.50005,0.50005 0 0 0 0.861328,-0.24414 c 0.57839,-3.06981 3.251187,-5.28907 6.375,-5.29102 z"
         style="color:#000000;font-style:normal;font-variant:normal;font-weight:normal;font-stretch:normal;font-size:medium;line-height:normal;font-family:sans-serif;font-variant-ligatures:normal;font-variant-position:normal;font-variant-caps:normal;font-variant-numeric:normal;font-variant-alternates:normal;font-feature-settings:normal;text-indent:0;text-align:start;text-decoration:none;text-decoration-line:none;text-decoration-style:solid;text-decoration-color:#000000;letter-spacing:normal;word-spacing:normal;text-transform:none;writing-mode:lr-tb;direction:ltr;text-orientation:mixed;dominant-baseline:auto;baseline-shift:baseline;text-anchor:start;white-space:normal;shape-padding:0;clip-rule:nonzero;display:inline;overflow:visible;visibility:visible;opacity:1;isolation:auto;mix-blend-mode:normal;color-interpolation:sRGB;color-interpolation-filters:linearRGB;solid-color:#000000;solid-opacity:1;vector-effect:none;fill:#ffffff;fill-opacity:1;fill-rule:nonzero;stroke:none;stroke-width:1;stroke-linecap:round;stroke-linejoin:round;stroke-miterlimit:4;stroke-dasharray:none;stroke-dashoffset:15;stroke-opacity:1;color-rendering:auto;image-rendering:auto;shape-rendering:auto;text-rendering:auto;enable-background:accumulate" />
    </g>
  </g>
</svg>
