<?xml version="1.0" encoding="UTF-8" standalone="no"?>
<!-- Created with Inkscape (http://www.inkscape.org/) -->

<svg
   xmlns:dc="http://purl.org/dc/elements/1.1/"
   xmlns:cc="http://creativecommons.org/ns#"
   xmlns:rdf="http://www.w3.org/1999/02/22-rdf-syntax-ns#"
   xmlns:svg="http://www.w3.org/2000/svg"
   xmlns="http://www.w3.org/2000/svg"
   xmlns:sodipodi="http://sodipodi.sourceforge.net/DTD/sodipodi-0.dtd"
   xmlns:inkscape="http://www.inkscape.org/namespaces/inkscape"
   width="40mm"
   height="40mm"
   viewBox="0 0 40 40"
   version="1.1"
   id="svg8"
   inkscape:version="0.92.2 (unknown)"
   sodipodi:docname="lightning-line.svg">
  <defs
     id="defs2" />
  <sodipodi:namedview
     id="base"
     pagecolor="#ffffff"
     bordercolor="#666666"
     borderopacity="1.0"
     inkscape:pageopacity="0.0"
     inkscape:pageshadow="2"
     inkscape:zoom="1.4"
     inkscape:cx="176.35134"
     inkscape:cy="-137.39248"
     inkscape:document-units="mm"
     inkscape:current-layer="layer1"
     showgrid="false"
     inkscape:window-width="2442"
     inkscape:window-height="1552"
     inkscape:window-x="118"
     inkscape:window-y="48"
     inkscape:window-maximized="1" />
  <metadata
     id="metadata5">
    <rdf:RDF>
      <cc:Work
         rdf:about="">
        <dc:format>image/svg+xml</dc:format>
        <dc:type
           rdf:resource="http://purl.org/dc/dcmitype/StillImage" />
        <dc:title></dc:title>
      </cc:Work>
    </rdf:RDF>
  </metadata>
  <g
     inkscape:label="圖層 1"
     inkscape:groupmode="layer"
     id="layer1"
     transform="translate(0,-257)">
    <path
       style="color:#000000;font-style:normal;font-variant:normal;font-weight:normal;font-stretch:normal;font-size:medium;line-height:normal;font-family:sans-serif;font-variant-ligatures:normal;font-variant-position:normal;font-variant-caps:normal;font-variant-numeric:normal;font-variant-alternates:normal;font-feature-settings:normal;text-indent:0;text-align:start;text-decoration:none;text-decoration-line:none;text-decoration-style:solid;text-decoration-color:#000000;letter-spacing:normal;word-spacing:normal;text-transform:none;writing-mode:lr-tb;direction:ltr;text-orientation:mixed;dominant-baseline:auto;baseline-shift:baseline;text-anchor:start;white-space:normal;shape-padding:0;clip-rule:nonzero;display:inline;overflow:visible;visibility:visible;opacity:0.72100004;isolation:auto;mix-blend-mode:normal;color-interpolation:sRGB;color-interpolation-filters:linearRGB;solid-color:#000000;solid-opacity:1;vector-effect:none;fill:#ffffff;fill-opacity:1;fill-rule:nonzero;stroke:none;stroke-width:1;stroke-linecap:round;stroke-linejoin:round;stroke-miterlimit:4;stroke-dasharray:none;stroke-dashoffset:15;stroke-opacity:1;color-rendering:auto;image-rendering:auto;shape-rendering:auto;text-rendering:auto;enable-background:accumulate"
       d="m 24.913138,259.59172 c -3.348011,0.002 -6.176087,2.26786 -7.101377,5.42551 -1.03696,-0.87643 -2.296504,-1.45479 -3.670059,-1.45676 -3.031331,0 -5.4563382,2.36664 -5.7009455,5.33611 -3.3008279,0.12283 -5.9495054,2.79365 -5.9495054,6.12469 0,3.40937 2.7608556,6.17017 6.1701652,6.17017 H 21.700929 l -2.067057,2.21588 -2.738334,2.93367 a 0.50005001,0.50005001 0 0 0 0.115239,0.7736 l 1.531689,0.8847 -0.588076,1.92598 -1.172022,3.83749 a 0.50005001,0.50005001 0 0 0 0.843875,0.48679 l 2.738334,-2.93367 2.736268,-2.93367 a 0.50005001,0.50005001 0 0 0 -0.115239,-0.7736 l -1.531173,-0.8847 0.58756,-1.92598 1.101225,-3.60649 h 8.195884 c 3.409302,0 6.169647,-2.7608 6.169647,-6.17017 0,-3.14736 -2.380877,-5.65722 -5.425506,-6.03684 0.166589,-0.62269 0.319762,-1.25248 0.321942,-1.89859 a 0.50005001,0.50005001 0 0 0 0,-0.002 c 1.7e-4,-4.13235 -3.359713,-7.49222 -7.492047,-7.49205 z m 0,0.99994 c 3.591864,-1.4e-4 6.492269,2.90023 6.49211,6.49211 -0.0021,0.71832 -0.123322,1.43093 -0.359153,2.10943 a 0.50005001,0.50005001 0 0 0 0.456821,0.66404 c 2.794069,0.0863 5.005896,2.34655 5.005896,5.16403 0,2.8726 -2.29706,5.17023 -5.16971,5.17023 H 8.6614163 c -2.8726526,0 -5.1702281,-2.29763 -5.1702281,-5.17023 0,-2.87259 2.297631,-5.16971 5.1702281,-5.16971 h 0.1875843 a 0.50005001,0.50005001 0 0 0 0.4997106,-0.50023 c 0,-2.65162 2.1395608,-4.78985 4.7909238,-4.79092 1.346605,0.002 2.63066,0.5706 3.537252,1.56631 a 0.50005001,0.50005001 0 0 0 0.861446,-0.24391 c 0.57839,-3.0698 3.250994,-5.2892 6.374805,-5.29115 z m -3.285072,22.14387 -0.541052,1.77147 -0.704866,2.30476 a 0.50005001,0.50005001 0 0 0 0.22841,0.58033 l 0.310576,0.17932 1.019574,0.58807 -2.306836,2.47479 -1.263488,1.3534 0.541051,-1.77146 0.704866,-2.30477 a 0.50005001,0.50005001 0 0 0 -0.228409,-0.58033 l -0.310573,-0.17932 -1.021644,-0.58807 2.308902,-2.47479 z"
       id="rect4666-6-3-2-2"
       inkscape:connector-curvature="0" />
  </g>
</svg>
