<?xml version="1.0" encoding="UTF-8" standalone="no"?>
<!-- Created with Inkscape (http://www.inkscape.org/) -->

<svg
   xmlns:dc="http://purl.org/dc/elements/1.1/"
   xmlns:cc="http://creativecommons.org/ns#"
   xmlns:rdf="http://www.w3.org/1999/02/22-rdf-syntax-ns#"
   xmlns:svg="http://www.w3.org/2000/svg"
   xmlns="http://www.w3.org/2000/svg"
   xmlns:sodipodi="http://sodipodi.sourceforge.net/DTD/sodipodi-0.dtd"
   xmlns:inkscape="http://www.inkscape.org/namespaces/inkscape"
   width="40mm"
   height="40mm"
   viewBox="0 0 40 40"
   version="1.1"
   id="svg8"
   inkscape:version="0.92.2 (unknown)"
   sodipodi:docname="lightning-shadow.svg">
  <defs
     id="defs2" />
  <sodipodi:namedview
     id="base"
     pagecolor="#ffffff"
     bordercolor="#666666"
     borderopacity="1.0"
     inkscape:pageopacity="0.0"
     inkscape:pageshadow="2"
     inkscape:zoom="2.8"
     inkscape:cx="75.971008"
     inkscape:cy="-66.107284"
     inkscape:document-units="mm"
     inkscape:current-layer="layer1"
     showgrid="false"
     inkscape:window-width="2442"
     inkscape:window-height="1552"
     inkscape:window-x="118"
     inkscape:window-y="48"
     inkscape:window-maximized="1"
     showguides="false" />
  <metadata
     id="metadata5">
    <rdf:RDF>
      <cc:Work
         rdf:about="">
        <dc:format>image/svg+xml</dc:format>
        <dc:type
           rdf:resource="http://purl.org/dc/dcmitype/StillImage" />
        <dc:title />
      </cc:Work>
    </rdf:RDF>
  </metadata>
  <g
     inkscape:label="圖層 1"
     inkscape:groupmode="layer"
     id="layer1"
     transform="translate(0,-257)">
    <path
       style="color:#000000;font-style:normal;font-variant:normal;font-weight:normal;font-stretch:normal;font-size:medium;line-height:normal;font-family:sans-serif;font-variant-ligatures:normal;font-variant-position:normal;font-variant-caps:normal;font-variant-numeric:normal;font-variant-alternates:normal;font-feature-settings:normal;text-indent:0;text-align:start;text-decoration:none;text-decoration-line:none;text-decoration-style:solid;text-decoration-color:#000000;letter-spacing:normal;word-spacing:normal;text-transform:none;writing-mode:lr-tb;direction:ltr;text-orientation:mixed;dominant-baseline:auto;baseline-shift:baseline;text-anchor:start;white-space:normal;shape-padding:0;clip-rule:nonzero;display:inline;overflow:visible;visibility:visible;opacity:1;isolation:auto;mix-blend-mode:normal;color-interpolation:sRGB;color-interpolation-filters:linearRGB;solid-color:#000000;solid-opacity:1;vector-effect:none;fill:#3d3d3d;fill-opacity:1;fill-rule:nonzero;stroke:none;stroke-width:1;stroke-linecap:round;stroke-linejoin:round;stroke-miterlimit:4;stroke-dasharray:none;stroke-dashoffset:0;stroke-opacity:1;paint-order:markers fill stroke;color-rendering:auto;image-rendering:auto;shape-rendering:auto;text-rendering:auto;enable-background:accumulate"
       d="m 24.913099,259.59216 c -3.348016,0.002 -6.176085,2.26786 -7.101375,5.42551 -1.036961,-0.87643 -2.296504,-1.45479 -3.67006,-1.45676 -3.031331,0 -5.4563382,2.36612 -5.7009442,5.33559 -3.300829,0.12283 -5.949507,2.79417 -5.949507,6.12521 0,3.40937 2.760857,6.16965 6.170166,6.16965 H 21.701409 l -2.067057,2.21433 -2.736267,2.93368 c -0.218839,0.23501 -0.162602,0.61258 0.115238,0.77359 l 1.531173,0.8847 -0.587561,1.92547 -1.172022,3.83801 c -0.152949,0.50632 0.48242,0.87241 0.843876,0.48627 l 2.736267,-2.93367 2.738335,-2.9316 c 0.220531,-0.23518 0.164152,-0.61427 -0.115239,-0.77515 l -1.531173,-0.88315 0.587561,-1.92753 1.101225,-3.60495 h 8.193298 c 3.409299,0 6.170165,-2.76028 6.170165,-6.16965 0,-3.14736 -2.381395,-5.65774 -5.426024,-6.03736 0.166589,-0.62269 0.32028,-1.25196 0.322461,-1.89807 v -0.002 c 1.72e-4,-4.13235 -3.360217,-7.49222 -7.492566,-7.49205 z"
       id="path817-6-7-5-0"
       inkscape:connector-curvature="0" />
  </g>
</svg>
