<?xml version="1.0" encoding="UTF-8" standalone="no"?>
<!-- Created with Inkscape (http://www.inkscape.org/) -->

<svg
   xmlns:dc="http://purl.org/dc/elements/1.1/"
   xmlns:cc="http://creativecommons.org/ns#"
   xmlns:rdf="http://www.w3.org/1999/02/22-rdf-syntax-ns#"
   xmlns:svg="http://www.w3.org/2000/svg"
   xmlns="http://www.w3.org/2000/svg"
   xmlns:sodipodi="http://sodipodi.sourceforge.net/DTD/sodipodi-0.dtd"
   xmlns:inkscape="http://www.inkscape.org/namespaces/inkscape"
   width="40mm"
   height="40mm"
   viewBox="0 0 40 40"
   version="1.1"
   id="svg8"
   inkscape:version="0.92.2 (unknown)"
   sodipodi:docname="rainbow.svg">
  <defs
     id="defs2" />
  <sodipodi:namedview
     id="base"
     pagecolor="#ffffff"
     bordercolor="#666666"
     borderopacity="1.0"
     inkscape:pageopacity="0.0"
     inkscape:pageshadow="2"
     inkscape:zoom="2.8"
     inkscape:cx="-14.455868"
     inkscape:cy="64.88181"
     inkscape:document-units="mm"
     inkscape:current-layer="layer1"
     showgrid="false"
     inkscape:window-width="2442"
     inkscape:window-height="1552"
     inkscape:window-x="118"
     inkscape:window-y="48"
     inkscape:window-maximized="1" />
  <metadata
     id="metadata5">
    <rdf:RDF>
      <cc:Work
         rdf:about="">
        <dc:format>image/svg+xml</dc:format>
        <dc:type
           rdf:resource="http://purl.org/dc/dcmitype/StillImage" />
        <dc:title></dc:title>
      </cc:Work>
    </rdf:RDF>
  </metadata>
  <g
     inkscape:label="圖層 1"
     inkscape:groupmode="layer"
     id="layer1"
     transform="translate(0,-257)">
    <g
       id="g1234"
       transform="translate(-0.33790595,3.4743979)">
      <path
         inkscape:connector-curvature="0"
         id="path835-7"
         d="m 20.86591,263.35416 a 14.30396,14.30396 0 0 0 -13.3066817,9.10022 c -1.6948063,0.44274 -2.9508,1.98148 -2.9507241,3.8132 v 10e-4 c 0.00115,0.34019 0.082822,0.67105 0.1705322,0.99891 -1.603397,0.19993 -2.8571899,1.52268 -2.8571899,3.18017 0,1.79548 1.4534512,3.24941 3.2488973,3.24941 H 17.113684 c 1.795447,0 3.249414,-1.45393 3.249414,-3.24941 0,-1.75423 -1.394833,-3.16105 -3.133142,-3.22565 -0.08612,-1.04633 -0.687943,-1.94807 -1.55391,-2.43189 a 5.9438751,5.9438751 0 0 1 5.189864,-3.07526 5.9438751,5.9438751 0 0 1 5.192448,3.07474 c -0.866299,0.48374 -1.46829,1.38584 -1.554427,2.43241 -1.73831,0.0646 -3.132625,1.47142 -3.132625,3.22565 0,1.79548 1.453452,3.24941 3.248896,3.24941 h 11.942939 c 1.795447,0 3.249417,-1.45393 3.249417,-3.24941 0,-1.65749 -1.254313,-2.98024 -2.857709,-3.18017 0.08771,-0.32786 0.169902,-0.65872 0.171051,-0.99891 v -10e-4 c 7.6e-5,-1.83945 -1.266754,-3.38361 -2.97243,-3.81889 a 14.30396,14.30396 0 0 0 -13.28756,-9.09453 z m 0,3.04426 a 11.259536,11.259536 0 0 0 -0.776179,0.0403 11.259536,11.259536 0 0 1 0.776179,-0.0403 z m 0.779798,0.0408 a 11.259536,11.259536 0 0 1 0.551903,0.0501 11.259536,11.259536 0 0 0 -0.551903,-0.0501 z m -2.113568,0.0496 a 11.259536,11.259536 0 0 0 -0.556038,0.0847 11.259536,11.259536 0 0 1 0.556038,-0.0847 z m 3.22616,0.0863 a 11.259536,11.259536 0 0 1 0.548804,0.10542 11.259536,11.259536 0 0 0 -0.548804,-0.10542 z m -4.335135,0.1049 a 11.259536,11.259536 0 0 0 -0.542086,0.13901 11.259536,11.259536 0 0 1 0.542086,-0.13901 z m 5.42706,0.14056 a 11.259536,11.259536 0 0 1 0.544152,0.16226 11.259536,11.259536 0 0 0 -0.544152,-0.16226 z m -6.512265,0.1602 a 11.259536,11.259536 0 0 0 -0.526066,0.19327 11.259536,11.259536 0 0 1 0.526066,-0.19327 z m 7.579898,0.19482 a 11.259536,11.259536 0 0 1 0.522968,0.21497 11.259536,11.259536 0 0 0 -0.522968,-0.21497 z m -8.627379,0.21239 a 11.259536,11.259536 0 0 0 -0.500228,0.24288 11.259536,11.259536 0 0 1 0.500228,-0.24288 z m 9.652639,0.24598 a 11.259536,11.259536 0 0 1 0.498163,0.26562 11.259536,11.259536 0 0 0 -0.498163,-0.26562 z m -10.657229,0.26562 a 11.259536,11.259536 0 0 0 -0.472323,0.29093 11.259536,11.259536 0 0 1 0.472323,-0.29093 z m 11.637016,0.29662 a 11.259536,11.259536 0 0 1 0.465087,0.31161 11.259536,11.259536 0 0 0 -0.465087,-0.31161 z m -12.580628,0.30902 a 11.259536,11.259536 0 0 0 -0.449068,0.34313 11.259536,11.259536 0 0 1 0.449068,-0.34313 z m 13.49375,0.34468 a 11.259536,11.259536 0 0 1 0.431498,0.35606 11.259536,11.259536 0 0 0 -0.431498,-0.35606 z m -6.970117,0.30335 a 8.5050576,8.5050576 0 0 0 -0.527616,0.0274 8.5050576,8.5050576 0 0 1 0.527616,-0.0274 z m 0.523999,0.0269 a 8.5050576,8.5050576 0 0 1 0.425813,0.0326 8.5050576,8.5050576 0 0 0 -0.425813,-0.0326 z m -7.926648,0.0227 a 11.259536,11.259536 0 0 0 -0.410311,0.38292 11.259536,11.259536 0 0 1 0.410311,-0.38292 z m 6.460587,0.009 a 8.5050576,8.5050576 0 0 0 -0.42943,0.0656 8.5050576,8.5050576 0 0 1 0.42943,-0.0656 z m 2.301152,0.0625 a 8.5050576,8.5050576 0 0 1 0.429432,0.076 8.5050576,8.5050576 0 0 0 -0.429432,-0.076 z m -3.140376,0.0754 a 8.5050576,8.5050576 0 0 0 -0.413412,0.10646 8.5050576,8.5050576 0 0 1 0.413412,-0.10646 z m 3.976502,0.10542 a 8.5050576,8.5050576 0 0 1 0.411342,0.11628 8.5050576,8.5050576 0 0 0 -0.411342,-0.11628 z m -4.799708,0.11679 a 8.5050576,8.5050576 0 0 0 -0.405144,0.14883 8.5050576,8.5050576 0 0 1 0.405144,-0.14883 z m 10.421069,0.0222 a 11.259536,11.259536 0 0 1 0.391708,0.39481 11.259536,11.259536 0 0 0 -0.391708,-0.39481 z m -4.807976,0.12454 a 8.5050576,8.5050576 0 0 1 0.390676,0.154 8.5050576,8.5050576 0 0 0 -0.390676,-0.154 z m -6.401159,0.15245 a 8.5050576,8.5050576 0 0 0 -0.402043,0.19533 8.5050576,8.5050576 0 0 1 0.402043,-0.19533 z m -4.821928,0.11937 a 11.259536,11.259536 0 0 0 -0.367419,0.41961 11.259536,11.259536 0 0 1 0.367419,-0.41961 z m 12.002369,0.0708 a 8.5050576,8.5050576 0 0 1 0.371552,0.19068 8.5050576,8.5050576 0 0 0 -0.371552,-0.19068 z m -7.943702,0.1912 a 8.5050576,8.5050576 0 0 0 -0.361218,0.22221 8.5050576,8.5050576 0 0 1 0.361218,-0.22221 z m 12.736174,0.16226 a 11.259536,11.259536 0 0 1 0.352949,0.43512 11.259536,11.259536 0 0 0 -0.352949,-0.43512 z m -4.050916,0.0646 a 8.5050576,8.5050576 0 0 1 0.348816,0.22634 8.5050576,8.5050576 0 0 0 -0.348816,-0.22634 z m -9.407178,0.22944 a 8.5050576,8.5050576 0 0 0 -0.338997,0.25839 8.5050576,8.5050576 0 0 1 0.338997,-0.25839 z m -4.055566,0.13436 a 11.259536,11.259536 0 0 0 -0.33383,0.46871 11.259536,11.259536 0 0 1 0.33383,-0.46871 z m 14.150557,0.12092 a 8.5050576,8.5050576 0 0 1 0.332796,0.26665 8.5050576,8.5050576 0 0 0 -0.332796,-0.26665 z m -10.760066,0.26407 a 8.5050576,8.5050576 0 0 0 -0.31781,0.29714 8.5050576,8.5050576 0 0 1 0.31781,-0.29714 z m 14.804265,0.0832 a 11.259536,11.259536 0 0 1 0.30644,0.46716 11.259536,11.259536 0 0 0 -0.30644,-0.46716 z m -3.401343,0.20929 a 8.5050576,8.5050576 0 0 1 0.302308,0.29559 8.5050576,8.5050576 0 0 0 -0.302308,-0.29559 z m -15.429033,0.25115 a 11.259536,11.259536 0 0 0 -0.285771,0.49971 11.259536,11.259536 0 0 1 0.285771,-0.49971 z m 3.409094,0.047 a 8.5050576,8.5050576 0 0 0 -0.276985,0.31678 8.5050576,8.5050576 0 0 1 0.276985,-0.31678 z m 12.602848,0.31885 a 8.5050576,8.5050576 0 0 1 0.272335,0.32607 8.5050576,8.5050576 0 0 0 -0.272335,-0.32607 z m 3.404444,0.13022 a 11.259536,11.259536 0 0 1 0.358119,0.68678 11.259536,11.259536 0 0 0 -0.358119,-0.68678 z m -22.1583379,0.0537 c 0.1038318,6e-5 0.2067317,0.005 0.3085084,0.0129 -0.101881,-0.008 -0.2045755,-0.0129 -0.3085084,-0.0129 z m 0,0 c -0.1136896,0 -0.2256496,0.008 -0.3369302,0.0171 0.1112012,-0.0102 0.2230456,-0.0171 0.3369302,-0.0171 z m 24.6238199,0 c -0.103939,7e-5 -0.207139,0.005 -0.309025,0.0129 0.102066,-0.008 0.204885,-0.0129 0.309025,-0.0129 z m 0.0016,0 c 0.111815,5e-5 0.22202,0.007 0.331245,0.0171 -0.10958,-0.009 -0.219332,-0.017 -0.331245,-0.0171 z m -24.2155768,0.0243 c 0.067645,0.007 0.1349698,0.0151 0.2015381,0.0258 -0.066493,-0.0107 -0.133973,-0.0186 -0.2015381,-0.0258 z m 23.7975138,10e-4 c -0.06416,0.007 -0.128011,0.0141 -0.191204,0.0243 0.06313,-0.0101 0.127106,-0.0173 0.191204,-0.0243 z m 0.888317,0.006 c 0.04081,0.005 0.08102,0.0122 0.121441,0.0186 -0.04049,-0.006 -0.08056,-0.0137 -0.121441,-0.0186 z m -25.573632,10e-4 c -0.039525,0.005 -0.078146,0.0121 -0.1173054,0.0181 0.039046,-0.006 0.077897,-0.013 0.1173054,-0.0181 z m 1.2030276,0.0393 c 0.061567,0.0119 0.1229426,0.0245 0.1834513,0.0393 -0.060555,-0.0148 -0.1218372,-0.0274 -0.1834513,-0.0393 z m 23.1587924,0.004 c -0.05363,0.0106 -0.107371,0.0213 -0.160195,0.0341 0.05288,-0.0128 0.106503,-0.0235 0.160195,-0.0341 z m -22.8564853,0.0672 c 0.056045,0.0156 0.1113867,0.0325 0.1663981,0.0506 -0.054921,-0.0181 -0.1104469,-0.035 -0.1663981,-0.0506 z m 4.5712973,0.002 a 8.5050576,8.5050576 0 0 0 -0.243913,0.34209 8.5050576,8.5050576 0 0 1 0.243913,-0.34209 z m 17.991151,0.001 c -0.05337,0.015 -0.10622,0.0308 -0.158647,0.0481 0.05239,-0.0172 0.10532,-0.0331 0.158647,-0.0481 z m -22.2777111,0.0889 c 0.052421,0.0192 0.1041863,0.0396 0.1555461,0.061 -0.051375,-0.0214 -0.1031094,-0.0418 -0.1555461,-0.061 z m 21.9940061,0.002 c -0.04794,0.0176 -0.09506,0.0369 -0.14211,0.0563 0.04707,-0.0195 0.09416,-0.0387 0.14211,-0.0563 z m -21.71237,0.11317 c 0.05107,0.0234 0.101016,0.0488 0.150895,0.0744 -0.04986,-0.0256 -0.09985,-0.051 -0.150895,-0.0744 z m 21.429184,0.004 c -0.03943,0.0182 -0.07806,0.0379 -0.11679,0.0574 0.03875,-0.0195 0.07733,-0.0391 0.11679,-0.0574 z m -21.174419,0.12351 c 0.0632,0.0349 0.124461,0.0728 0.185519,0.1111 -0.06108,-0.0383 -0.122292,-0.0762 -0.185519,-0.1111 z m 20.917069,0.007 c -0.04653,0.0259 -0.09158,0.0539 -0.136943,0.0816 0.04532,-0.0277 0.09047,-0.0558 0.136943,-0.0816 z m -3.492293,0.005 a 8.5050576,8.5050576 0 0 1 0.236677,0.34881 8.5050576,8.5050576 0 0 0 -0.236677,-0.34881 z m -16.901293,0.33589 c 0.02127,0.0167 0.04109,0.035 0.06201,0.0522 -0.02089,-0.0172 -0.04077,-0.0355 -0.06201,-0.0522 z m 19.876305,0.004 c -0.02103,0.0166 -0.04081,0.0347 -0.0615,0.0517 0.02069,-0.017 0.04047,-0.0351 0.0615,-0.0517 z m -17.133837,0.0129 a 8.5050576,8.5050576 0 0 0 -0.213424,0.37414 8.5050576,8.5050576 0 0 1 0.213424,-0.37414 z m -2.493905,0.1974 c 0.02755,0.0257 0.05379,0.0526 0.08062,0.0791 -0.02677,-0.0264 -0.05313,-0.0534 -0.08062,-0.0791 z m 19.380213,0.003 c -0.02844,0.0265 -0.05553,0.0548 -0.0832,0.0822 0.02772,-0.0274 0.0547,-0.0556 0.0832,-0.0822 z m -2.277382,0.1695 a 8.5050576,8.5050576 0 0 1 0.201538,0.3731 8.5050576,8.5050576 0 0 0 -0.201538,-0.3731 z m 2.044322,0.0682 c -0.02844,0.0314 -0.05574,0.0638 -0.0832,0.0961 0.02749,-0.0324 0.05474,-0.0647 0.0832,-0.0961 z m -18.909441,0.002 c 0.02505,0.0277 0.04909,0.0563 0.07338,0.0847 -0.0243,-0.0284 -0.04832,-0.057 -0.07338,-0.0847 z m 0.206706,0.24856 c 0.02721,0.0355 0.05352,0.0716 0.07958,0.10801 -0.02607,-0.0365 -0.05236,-0.0725 -0.07958,-0.10801 z m 18.49396,0.002 c -0.02791,0.0364 -0.05546,0.0731 -0.08216,0.11059 0.02674,-0.0375 0.05421,-0.0741 0.08216,-0.11059 z m -16.855301,0.0496 a 8.5050576,8.5050576 0 0 0 -0.180867,0.40566 8.5050576,8.5050576 0 0 1 0.180867,-0.40566 z m -1.444873,0.22583 c 0.02449,0.0382 0.0491,0.0761 0.07235,0.11524 -0.02321,-0.0391 -0.0479,-0.0771 -0.07235,-0.11524 z m 18.104321,0.004 c -0.02409,0.0377 -0.04842,0.0751 -0.07131,0.11368 0.0229,-0.0385 0.04721,-0.076 0.07131,-0.11368 z m -1.26814,0.15658 a 8.5050576,8.5050576 0 0 1 0.204124,0.48834 8.5050576,8.5050576 0 0 0 -0.204124,-0.48834 z m -16.663581,0.13694 c 0.0206,0.0391 0.04212,0.0774 0.0615,0.1173 -0.01936,-0.0398 -0.04092,-0.0782 -0.0615,-0.1173 z m 17.760673,5.2e-4 c -0.02045,0.0388 -0.04174,0.0772 -0.06098,0.11678 0.01926,-0.0396 0.04051,-0.0779 0.06098,-0.11678 z m -15.166,0.009 c 0.03188,0.004 0.06302,0.01 0.09457,0.0145 -0.03151,-0.005 -0.06273,-0.0107 -0.09457,-0.0145 z m 12.572875,0 c -0.03201,0.004 -0.06341,0.01 -0.09508,0.0145 0.03172,-0.005 0.06303,-0.0106 0.09508,-0.0145 z m -13.251903,5.1e-4 c -0.02584,0.003 -0.05134,0.008 -0.077,0.0119 0.02566,-0.004 0.05115,-0.009 0.077,-0.0119 z m 13.929898,0 c 0.02707,0.003 0.05376,0.008 0.08062,0.0124 -0.02685,-0.004 -0.05356,-0.009 -0.08062,-0.0124 z m -14.270963,0.0672 c -0.0172,0.005 -0.03458,0.009 -0.05168,0.0134 0.01712,-0.005 0.03446,-0.009 0.05168,-0.0134 z m 1.384412,0 c 0.02309,0.006 0.04638,0.0107 0.06925,0.0171 -0.02289,-0.006 -0.04614,-0.0113 -0.06925,-0.0171 z m 13.228133,0 c 0.01742,0.005 0.03488,0.009 0.05219,0.014 -0.01733,-0.005 -0.03476,-0.009 -0.05219,-0.014 z m -1.385962,5.2e-4 c -0.02221,0.005 -0.04466,0.0105 -0.06666,0.0165 0.02203,-0.006 0.04443,-0.011 0.06666,-0.0165 z m -14.653369,0.23409 c 0.0168,0.0397 0.03505,0.0785 0.05064,0.11886 -7.52e-4,-0.002 -0.0018,-0.004 -0.0026,-0.006 -0.01264,-0.0326 -0.0274,-0.0639 -0.04082,-0.0961 -0.0024,-0.006 -0.0048,-0.0114 -0.0072,-0.0171 z m 17.459916,0.0129 c -0.01432,0.0342 -0.02998,0.0676 -0.04341,0.10232 0.01344,-0.0347 0.02907,-0.0681 0.04341,-0.10232 z m -0.457854,0.19999 c 0.01089,0.007 0.02174,0.0147 0.03256,0.0222 -0.01077,-0.008 -0.02171,-0.0148 -0.03256,-0.0222 z m -16.544725,0.005 c -0.0074,0.005 -0.01488,0.01 -0.02222,0.015 0.0074,-0.005 0.01482,-0.01 0.02222,-0.015 z"
         style="opacity:1;fill:#6f6f6f;fill-opacity:1;stroke:none;stroke-width:1.53419793;stroke-linecap:round;stroke-linejoin:round;stroke-miterlimit:4;stroke-dasharray:none;stroke-dashoffset:0;stroke-opacity:1;paint-order:markers fill stroke" />
      <g
         transform="matrix(0.99283284,0,0,0.99283284,17.025261,-12.042774)"
         id="g981">
        <g
           id="g923"
           transform="matrix(1.0301821,0,0,1.0301821,-1.0577694,-35.816243)">
          <path
             id="path835"
             transform="matrix(0.25868566,0,0,0.25868566,-15.618982,297.8126)"
             d="M 74.863281,24.015625 A 54.062211,54.062211 0 0 0 24.570312,58.410156 c 1.204821,-0.314712 2.461596,-0.500054 3.763672,-0.5 2.925077,0.0015 5.649889,0.870867 7.94336,2.376953 a 42.555726,42.555726 0 0 1 38.585937,-24.765625 42.555726,42.555726 0 0 1 38.572269,24.78125 c 2.29807,-1.515081 5.03031,-2.391096 7.96484,-2.392578 1.27321,-5.2e-5 2.50294,0.17717 3.68359,0.478516 A 54.062211,54.062211 0 0 0 74.863281,24.015625 Z M 37.291016,61.019531 c 0.09219,0.07244 0.179066,0.151936 0.269531,0.226563 -0.09059,-0.07473 -0.177211,-0.154026 -0.269531,-0.226563 z m 75.128904,0.01953 c -0.0722,0.05696 -0.1398,0.119438 -0.21094,0.177735 0.071,-0.05824 0.13884,-0.120834 0.21094,-0.177735 z M 38.236328,61.83203 c 0.104706,0.09751 0.204698,0.200222 0.306641,0.300781 -0.101996,-0.100603 -0.201882,-0.203226 -0.306641,-0.300781 z m 73.230472,0.0293 c -0.0846,0.07923 -0.16524,0.162908 -0.24805,0.244141 0.0828,-0.08126 0.16343,-0.16488 0.24805,-0.244141 z m -72.330081,0.886719 c 0.09471,0.104729 0.185499,0.212821 0.277343,0.320312 -0.09182,-0.107425 -0.182666,-0.215646 -0.277343,-0.320312 z m 71.447261,0.01367 c -0.091,0.100806 -0.17728,0.205235 -0.26562,0.308593 0.0882,-0.103314 0.17473,-0.207828 0.26562,-0.308593 z m -70.658199,0.9375 c 0.102297,0.133659 0.202787,0.268961 0.300781,0.40625 -0.09813,-0.13741 -0.198344,-0.272477 -0.300781,-0.40625 z m 69.865239,0.02344 c -0.0947,0.124125 -0.18637,0.24971 -0.27735,0.376953 0.0908,-0.127052 0.18286,-0.253009 0.27735,-0.376953 z m -0.70704,1.011719 c -0.0953,0.14862 -0.19089,0.296934 -0.28125,0.449219 0.0903,-0.152333 0.18596,-0.30055 0.28125,-0.449219 z m -68.429683,0.0059 c 0.09095,0.142038 0.181157,0.284307 0.267578,0.429688 -0.08654,-0.145536 -0.176494,-0.287503 -0.267578,-0.429688 z m 0.626953,1.076172 c 0.08836,0.166473 0.179258,0.331683 0.261719,0.501953 -0.0826,-0.170536 -0.173202,-0.335228 -0.261719,-0.501953 z m 67.15234,0.03906 c -0.0785,0.148906 -0.16054,0.29533 -0.23437,0.447265 0.0737,-0.151779 0.15596,-0.298505 0.23437,-0.447265 z m -7.23828,0.04297 c 0.10353,0.01328 0.20587,0.03041 0.3086,0.04687 -0.003,-4.05e-4 -0.005,-0.0015 -0.008,-0.002 -0.10013,-0.01615 -0.19992,-0.03173 -0.30078,-0.04492 z m 6.66211,1.173828 c -0.0571,0.136081 -0.12044,0.268078 -0.17383,0.40625 0.0533,-0.13797 0.11679,-0.270361 0.17383,-0.40625 z m -65.968748,0.02734 c 0.05073,0.121505 0.106549,0.240118 0.154297,0.363282 -0.04778,-0.123256 -0.103531,-0.241688 -0.154297,-0.363282 z m 1.740234,0.734375 c -0.04796,0.03235 -0.09694,0.06271 -0.144531,0.0957 0.04744,-0.03326 0.09672,-0.06309 0.144531,-0.0957 z m 62.498044,0.01367 c 0.0372,0.02546 0.0744,0.05033 0.11133,0.07617 -0.0371,-0.02568 -0.074,-0.05088 -0.11133,-0.07617 z"
             style="opacity:1;fill:#ff8e8e;fill-opacity:1;stroke:none;stroke-width:5.79854345;stroke-linecap:round;stroke-linejoin:round;stroke-miterlimit:4;stroke-dasharray:none;stroke-dashoffset:0;stroke-opacity:1;paint-order:markers fill stroke"
             inkscape:connector-curvature="0" />
          <path
             id="path837"
             transform="matrix(0.25868566,0,0,0.25868566,-15.618982,297.8126)"
             d="M 74.863281,35.521484 A 42.555726,42.555726 0 0 0 36.277344,60.287109 c 2.93181,1.925273 5.158227,4.891287 6.191406,8.417969 0.691653,-0.584354 1.43753,-1.093375 2.220703,-1.523437 a 32.1451,32.1451 0 0 1 0,-0.002 A 32.1451,32.1451 0 0 1 74.863281,45.933547 32.1451,32.1451 0 0 1 105.05469,67.1855 c 0.77981,0.42907 1.52197,0.937445 2.21093,1.519531 1.03059,-3.517768 3.24909,-6.47669 6.16993,-8.402344 A 42.555726,42.555726 0 0 0 74.863281,35.521484 Z m 26.316409,30.373047 c 0.10889,0.01379 0.21621,0.03347 0.32422,0.05078 -0.108,-0.01751 -0.21533,-0.03682 -0.32422,-0.05078 z m -52.628909,0.002 c -0.103602,0.01336 -0.205805,0.03029 -0.308593,0.04687 0.102758,-0.01635 0.205038,-0.03372 0.308593,-0.04687 z m -1.283203,0.251954 c -0.0709,0.01872 -0.142447,0.0345 -0.21289,0.05469 0.07038,-0.01996 0.14206,-0.0362 0.21289,-0.05469 z m 55.210942,0.002 c 0.0676,0.01773 0.13593,0.03367 0.20312,0.05273 -0.0673,-0.01927 -0.13542,-0.03481 -0.20312,-0.05273 z"
             style="opacity:1;fill:#ffe7af;fill-opacity:1;stroke:none;stroke-width:7.63311052;stroke-linecap:round;stroke-linejoin:round;stroke-miterlimit:4;stroke-dasharray:none;stroke-dashoffset:0;stroke-opacity:1;paint-order:markers fill stroke"
             inkscape:connector-curvature="0" />
          <path
             id="path837-3"
             transform="matrix(0.25868566,0,0,0.25868566,-15.618982,297.8126)"
             d="M 74.863281,45.933594 A 32.1451,32.1451 0 0 0 44.689453,67.181641 c 1.553626,-0.853141 3.266793,-1.370459 5.083985,-1.373047 1.996928,0 3.855608,0.525084 5.474609,1.429687 a 22.46504,22.46504 0 0 1 19.615234,-11.623047 22.46504,22.46504 0 0 1 19.625,11.621094 c 1.618459,-0.903795 3.476686,-1.427734 5.472657,-1.427734 1.820742,0.0026 3.537732,0.520794 5.093752,1.376953 A 32.1451,32.1451 0 0 0 74.863281,45.933594 Z"
             style="opacity:1;fill:#77dcc9;fill-opacity:1;stroke:none;stroke-width:5.76578331;stroke-linecap:round;stroke-linejoin:round;stroke-miterlimit:4;stroke-dasharray:none;stroke-dashoffset:0;stroke-opacity:1;paint-order:markers fill stroke"
             inkscape:connector-curvature="0" />
        </g>
        <path
           style="color:#000000;font-style:normal;font-variant:normal;font-weight:normal;font-stretch:normal;font-size:medium;line-height:normal;font-family:sans-serif;font-variant-ligatures:normal;font-variant-position:normal;font-variant-caps:normal;font-variant-numeric:normal;font-variant-alternates:normal;font-feature-settings:normal;text-indent:0;text-align:start;text-decoration:none;text-decoration-line:none;text-decoration-style:solid;text-decoration-color:#000000;letter-spacing:normal;word-spacing:normal;text-transform:none;writing-mode:lr-tb;direction:ltr;text-orientation:mixed;dominant-baseline:auto;baseline-shift:baseline;text-anchor:start;white-space:normal;shape-padding:0;clip-rule:nonzero;display:inline;overflow:visible;visibility:visible;opacity:1;isolation:auto;mix-blend-mode:normal;color-interpolation:sRGB;color-interpolation-filters:linearRGB;solid-color:#000000;solid-opacity:1;vector-effect:none;fill:#ffffff;fill-opacity:1;fill-rule:nonzero;stroke:none;stroke-width:0.53043222;stroke-linecap:round;stroke-linejoin:round;stroke-miterlimit:4;stroke-dasharray:none;stroke-dashoffset:15;stroke-opacity:1;color-rendering:auto;image-rendering:auto;shape-rendering:auto;text-rendering:auto;enable-background:accumulate"
           d="m 15.204411,286.41747 c -1.775988,9e-4 -3.276177,1.20193 -3.766901,2.87698 -0.549967,-0.46465 -1.218259,-0.77078 -1.9466437,-0.77182 -1.6079894,0 -2.8944364,1.25515 -3.0240844,2.83035 -1.750857,0.0651 -3.155658,1.48201 -3.155658,3.2489 0,1.80844 1.464316,3.27273 3.272724,3.27273 H 18.612853 c 1.808407,0 3.272723,-1.46429 3.272723,-3.27273 0,-1.66946 -1.263038,-3.00195 -2.878009,-3.20332 0.08834,-0.33023 0.17082,-0.6633 0.171977,-1.00595 0,-3.5e-4 0,-5.3e-4 0,-9e-4 9.1e-5,-2.19193 -1.7832,-3.97419 -3.975133,-3.9741 z"
           id="rect4666-7-7"
           inkscape:connector-curvature="0"
           sodipodi:nodetypes="ccccssssccccc" />
        <path
           style="color:#000000;font-style:normal;font-variant:normal;font-weight:normal;font-stretch:normal;font-size:medium;line-height:normal;font-family:sans-serif;font-variant-ligatures:normal;font-variant-position:normal;font-variant-caps:normal;font-variant-numeric:normal;font-variant-alternates:normal;font-feature-settings:normal;text-indent:0;text-align:start;text-decoration:none;text-decoration-line:none;text-decoration-style:solid;text-decoration-color:#000000;letter-spacing:normal;word-spacing:normal;text-transform:none;writing-mode:lr-tb;direction:ltr;text-orientation:mixed;dominant-baseline:auto;baseline-shift:baseline;text-anchor:start;white-space:normal;shape-padding:0;clip-rule:nonzero;display:inline;overflow:visible;visibility:visible;opacity:1;isolation:auto;mix-blend-mode:normal;color-interpolation:sRGB;color-interpolation-filters:linearRGB;solid-color:#000000;solid-opacity:1;vector-effect:none;fill:#ffffff;fill-opacity:1;fill-rule:nonzero;stroke:none;stroke-width:0.53043222;stroke-linecap:round;stroke-linejoin:round;stroke-miterlimit:4;stroke-dasharray:none;stroke-dashoffset:15;stroke-opacity:1;color-rendering:auto;image-rendering:auto;shape-rendering:auto;text-rendering:auto;enable-background:accumulate"
           d="m -9.5975143,286.41747 c 1.7759876,9e-4 3.2761776,1.20193 3.7669006,2.87698 0.549968,-0.46465 1.218259,-0.77078 1.946645,-0.77182 1.607989,0 2.89443497,1.25515 3.02408297,2.83035 1.75085604,0.0651 3.15565803,1.48201 3.15565803,3.2489 0,1.80844 -1.46431599,3.27273 -3.27272403,3.27273 H -13.005955 c -1.808407,0 -3.272724,-1.46429 -3.272724,-3.27273 0,-1.66946 1.263038,-3.00195 2.878009,-3.20332 -0.08834,-0.33023 -0.17082,-0.6633 -0.171977,-1.00595 0,-3.6e-4 0,-5.3e-4 0,-9e-4 -9.1e-5,-2.19193 1.783201,-3.97418 3.9751327,-3.97409 z"
           id="rect4666-7-7-09"
           inkscape:connector-curvature="0"
           sodipodi:nodetypes="ccccssssccccc" />
      </g>
    </g>
  </g>
</svg>
