<?xml version="1.0" encoding="UTF-8" standalone="no"?>
<!-- Created with Inkscape (http://www.inkscape.org/) -->

<svg
   xmlns:dc="http://purl.org/dc/elements/1.1/"
   xmlns:cc="http://creativecommons.org/ns#"
   xmlns:rdf="http://www.w3.org/1999/02/22-rdf-syntax-ns#"
   xmlns:svg="http://www.w3.org/2000/svg"
   xmlns="http://www.w3.org/2000/svg"
   xmlns:sodipodi="http://sodipodi.sourceforge.net/DTD/sodipodi-0.dtd"
   xmlns:inkscape="http://www.inkscape.org/namespaces/inkscape"
   width="40mm"
   height="40mm"
   viewBox="0 0 40 40"
   version="1.1"
   id="svg8"
   inkscape:version="0.92.2 (unknown)"
   sodipodi:docname="rainbow-line.svg">
  <defs
     id="defs2" />
  <sodipodi:namedview
     id="base"
     pagecolor="#ffffff"
     bordercolor="#666666"
     borderopacity="1.0"
     inkscape:pageopacity="0.0"
     inkscape:pageshadow="2"
     inkscape:zoom="3.959798"
     inkscape:cx="110.17003"
     inkscape:cy="21.125941"
     inkscape:document-units="mm"
     inkscape:current-layer="layer1"
     showgrid="false"
     inkscape:window-width="2442"
     inkscape:window-height="1552"
     inkscape:window-x="118"
     inkscape:window-y="48"
     inkscape:window-maximized="1" />
  <metadata
     id="metadata5">
    <rdf:RDF>
      <cc:Work
         rdf:about="">
        <dc:format>image/svg+xml</dc:format>
        <dc:type
           rdf:resource="http://purl.org/dc/dcmitype/StillImage" />
        <dc:title></dc:title>
      </cc:Work>
    </rdf:RDF>
  </metadata>
  <g
     inkscape:label="圖層 1"
     inkscape:groupmode="layer"
     id="layer1"
     transform="translate(0,-257)">
    <path
       style="color:#000000;font-style:normal;font-variant:normal;font-weight:normal;font-stretch:normal;font-size:medium;line-height:normal;font-family:sans-serif;font-variant-ligatures:normal;font-variant-position:normal;font-variant-caps:normal;font-variant-numeric:normal;font-variant-alternates:normal;font-feature-settings:normal;text-indent:0;text-align:start;text-decoration:none;text-decoration-line:none;text-decoration-style:solid;text-decoration-color:#000000;letter-spacing:normal;word-spacing:normal;text-transform:none;writing-mode:lr-tb;direction:ltr;text-orientation:mixed;dominant-baseline:auto;baseline-shift:baseline;text-anchor:start;white-space:normal;shape-padding:0;clip-rule:nonzero;display:inline;overflow:visible;visibility:visible;opacity:1;isolation:auto;mix-blend-mode:normal;color-interpolation:sRGB;color-interpolation-filters:linearRGB;solid-color:#000000;solid-opacity:1;vector-effect:none;fill:#ffffff;fill-opacity:1;fill-rule:nonzero;stroke:none;stroke-width:1.02088714;stroke-linecap:round;stroke-linejoin:round;stroke-miterlimit:4;stroke-dasharray:none;stroke-dashoffset:0;stroke-opacity:1;paint-order:markers fill stroke;color-rendering:auto;image-rendering:auto;shape-rendering:auto;text-rendering:auto;enable-background:accumulate"
       d="m 19.99845,266.53223 v 5.2e-4 c -5.865073,0.007 -11.1355877,3.56754 -13.3428551,8.98653 -1.7272635,0.56994 -2.986977,2.17633 -2.9868976,4.09019 -1.3e-6,6.7e-4 -1.3e-6,0.001 0,0.002 9.072e-4,0.26866 0.066969,0.48806 0.1193723,0.71882 -1.5244701,0.43753 -2.7341999,1.6769 -2.7341999,3.34553 0,2.02266 1.6510506,3.67161 3.6736776,3.67161 H 16.348543 c 1.892624,0 3.458006,-1.44382 3.651457,-3.28662 0.19345,1.8428 1.758833,3.28662 3.651456,3.28662 h 11.620996 c 2.022628,0 3.673678,-1.64895 3.673678,-3.67161 0,-1.66863 -1.20973,-2.90852 -2.734201,-3.34605 0.0524,-0.23077 0.117948,-0.44964 0.118856,-0.7183 a 0.51049459,0.51049459 0 0 0 0,-0.002 c 7.9e-5,-1.92105 -1.268738,-3.53216 -3.006019,-4.09639 C 31.118406,270.10234 25.857002,266.54606 20,266.53223 a 0.51049462,0.51049462 0 0 0 -0.0016,0 z m -5.17e-4,1.02165 h 0.0016 c 5.205757,0.0129 9.868478,3.05175 12.063345,7.7127 a 0.51049459,0.51049459 0 0 0 -0.07855,-0.007 c -1.74e-4,-1e-5 -3.41e-4,0 -5.16e-4,0 -0.0013,-4e-5 -0.0024,-5.2e-4 -0.0036,-5.2e-4 -0.09305,5e-5 -0.184976,0.005 -0.275952,0.0119 -0.07114,0.005 -0.141018,0.0134 -0.210839,0.0222 -0.483963,0.0609 -0.936125,0.20933 -1.346687,0.43098 -1.95431,-3.7943 -5.850387,-6.22005 -10.146668,-6.2296 a 0.51049462,0.51049462 0 0 0 -0.0021,0 c -4.297202,0.007 -8.194998,2.43236 -10.1508017,6.22701 -0.5604647,-0.27216 -1.1675589,-0.46218 -1.8272786,-0.4625 -0.00559,0 -0.010616,0.002 -0.01602,0.002 -0.028915,8e-4 -0.057521,0.003 -0.085783,0.008 2.1964723,-4.66756 6.8671803,-7.70885 12.0798833,-7.71581 z m 0,2.96157 c 3.965934,0.009 7.57076,2.25971 9.328111,5.79448 -0.415983,0.3783 -0.765063,0.83888 -1.029393,1.35392 a 0.51049462,0.51049462 0 0 0 -0.147277,0.092 C 26.834377,274.40844 23.613291,272.18052 20,272.17478 a 0.51049462,0.51049462 0 0 0 -0.0021,0 c -3.592466,0.008 -6.794365,2.21309 -8.121985,5.52938 -0.02796,-0.057 -0.05358,-0.10356 -0.07183,-0.13797 a 0.51049462,0.51049462 0 0 0 -0.06046,-0.0873 0.51049462,0.51049462 0 0 0 -0.04444,-0.10077 c -0.02679,-0.0451 -0.05292,-0.0861 -0.07752,-0.12454 0,0 0,-5.1e-4 0,-5.1e-4 a 0.51049462,0.51049462 0 0 0 -0.0708,-0.0848 0.51049462,0.51049462 0 0 0 -0.05374,-0.10025 c 0,0 -5.17e-4,-5.2e-4 -5.17e-4,-5.2e-4 -0.02941,-0.0411 -0.05861,-0.0798 -0.08733,-0.11731 0,0 0,-5.1e-4 0,-5.1e-4 a 0.51049462,0.51049462 0 0 0 -0.08372,-0.0832 0.51049462,0.51049462 0 0 0 -0.06563,-0.10181 c -0.02123,-0.0248 -0.04758,-0.0561 -0.08061,-0.0925 -3.02e-4,-3.3e-4 -2.14e-4,-7.3e-4 -5.17e-4,-10e-4 a 0.51049462,0.51049462 0 0 0 -0.09663,-0.0796 0.51049462,0.51049462 0 0 0 -0.07545,-0.0992 c -0.02194,-0.0216 -0.05082,-0.0513 -0.08888,-0.0868 -3.39e-4,-3.2e-4 -7.27e-4,-1.9e-4 -10e-4,-5.1e-4 a 0.51049462,0.51049462 0 0 0 -0.109555,-0.0749 0.51049462,0.51049462 0 0 0 -0.08268,-0.092 c 1.773025,-3.48767 5.337856,-5.71511 9.273336,-5.72265 z m 0,2.68149 H 20 c 2.901562,0.005 5.513805,1.6252 6.841959,4.13825 -0.122758,-0.0249 -0.248116,-0.0422 -0.379821,-0.0424 a 0.51049459,0.51049459 0 0 0 -0.0021,0 c -0.447163,0 -0.862781,0.0933 -1.239717,0.25631 C 24.067148,275.78421 22.128975,274.67297 20,274.66817 a 0.51049462,0.51049462 0 0 0 -0.0026,0 c -2.128121,0.006 -4.064712,1.11711 -5.217253,2.88148 -0.377101,-0.16316 -0.792821,-0.25683 -1.240234,-0.25683 h -5.17e-4 -5.16e-4 -0.001 c -0.130505,1.9e-4 -0.255009,0.0169 -0.376721,0.0413 1.327722,-2.5111 3.937229,-4.13034 6.836792,-4.13722 z m 0.0016,2.49132 c 1.782121,0.005 3.42825,0.90729 4.395081,2.38281 -0.585257,0.50963 -0.999343,1.22698 -1.173055,2.02674 -1.686009,0.20699 -3.044841,1.51226 -3.221509,3.20343 -0.176669,-1.69117 -1.535502,-2.99644 -3.221509,-3.20343 -0.173717,-0.79979 -0.587768,-1.51711 -1.173055,-2.02674 0.966429,-1.47504 2.612564,-2.37756 4.394047,-2.38281 z m 11.980663,0.5917 c 0.01109,0 0.02201,9.1e-4 0.03307,10e-4 0.08083,7.6e-4 0.160443,0.005 0.239779,0.0119 0.04563,0.004 0.09115,0.008 0.136427,0.0139 0.0049,6e-4 0.0096,10e-4 0.01447,0.002 0.134442,0.0182 0.267599,0.0445 0.398941,0.078 a 0.51049462,0.51049462 0 0 0 0.02842,0.006 c 1.427197,0.37566 2.478465,1.67045 2.478402,3.21686 -0.0011,0.2498 -0.06479,0.52757 -0.148312,0.83974 a 0.51049459,0.51049459 0 0 0 0.429432,0.63873 c 1.318286,0.16437 2.334223,1.23255 2.334223,2.58795 0,1.47158 -1.181008,2.65203 -2.652551,2.65203 H 23.651456 c -1.471541,0 -2.650484,-1.18045 -2.650484,-2.65203 0,-1.43641 1.129633,-2.57573 2.556433,-2.62878 a 0.51049459,0.51049459 0 0 0 0.49041,-0.46715 c 0.06946,-0.84398 0.545531,-1.56547 1.23455,-1.95544 a 0.51049462,0.51049462 0 0 0 0.01809,-0.009 c 0.163621,-0.0914 0.338282,-0.16273 0.521416,-0.21394 0.02659,-0.007 0.05364,-0.0132 0.08061,-0.0196 0.05692,-0.0138 0.115083,-0.0245 0.173633,-0.0341 0.03841,-0.006 0.07671,-0.0127 0.115755,-0.017 0.05805,-0.007 0.117252,-0.01 0.176733,-0.0119 0.03058,-10e-4 0.06057,-0.004 0.09147,-0.004 0.03125,5e-5 0.06196,0.004 0.09302,0.005 0.04637,0.002 0.09265,0.004 0.138493,0.01 0.03868,0.005 0.07692,0.0114 0.115238,0.0181 0.0471,0.008 0.09404,0.0174 0.14056,0.0289 0.03041,0.007 0.06081,0.015 0.09095,0.0238 0.162737,0.048 0.322204,0.11435 0.477491,0.19896 0.172678,0.0939 0.33955,0.2069 0.497125,0.34003 a 0.51049459,0.51049459 0 0 0 0.818039,-0.24598 c 0.02751,-0.0939 0.05931,-0.18584 0.09405,-0.27595 4.07e-4,-10e-4 0.0039,-0.009 0.0047,-0.0109 0.0052,-0.0122 0.01518,-0.0334 0.03462,-0.0796 0,0 0,-5.1e-4 0,-5.1e-4 a 0.51049462,0.51049462 0 0 0 0.0021,-0.006 c 0.260842,-0.61968 0.689115,-1.13912 1.227831,-1.49862 a 0.51049462,0.51049462 0 0 0 0.01654,-0.01 c 0.116022,-0.0765 0.23731,-0.14503 0.362252,-0.20619 0.01758,-0.009 0.03496,-0.0176 0.05271,-0.0258 0.04735,-0.0221 0.09568,-0.0422 0.144179,-0.062 0.0305,-0.0124 0.06104,-0.0247 0.09198,-0.0362 0.04105,-0.0153 0.08275,-0.0292 0.124539,-0.0429 0.03953,-0.0128 0.07921,-0.0254 0.119375,-0.0367 0.03919,-0.0111 0.07856,-0.0219 0.118337,-0.0315 0.0442,-0.0107 0.08896,-0.0196 0.133842,-0.0284 0.03748,-0.007 0.07471,-0.0146 0.112655,-0.0207 0.04591,-0.007 0.09248,-0.0127 0.139009,-0.0181 0.03889,-0.004 0.07747,-0.0104 0.11679,-0.0134 0.05404,-0.004 0.109058,-0.005 0.163814,-0.007 0.03005,-8.4e-4 0.05965,-0.003 0.08992,-0.003 z m -23.9602933,5.2e-4 c 0.05145,2e-5 0.1021583,0.003 0.1529622,0.006 0.032704,0.002 0.065742,0.002 0.098185,0.004 0.047396,0.004 0.093794,0.0103 0.1405599,0.016 0.036738,0.005 0.073719,0.008 0.1100706,0.014 0.044948,0.007 0.089028,0.0159 0.1333254,0.0248 0.03806,0.008 0.076115,0.0153 0.113688,0.0243 0.047597,0.0114 0.094837,0.0242 0.1415934,0.0377 0.028586,0.008 0.057004,0.0168 0.085266,0.0258 0.051456,0.0164 0.1026295,0.0338 0.1529623,0.0527 0.023142,0.009 0.045836,0.0182 0.06873,0.0274 0.053614,0.0216 0.1069456,0.0438 0.1591633,0.0682 0.011319,0.005 0.02234,0.0111 0.03359,0.0165 0.1294048,0.0623 0.2547594,0.1321 0.3746543,0.21084 a 0.51049462,0.51049462 0 0 0 0.01757,0.0103 c 0.063401,0.0422 0.1257334,0.0863 0.1860351,0.1328 a 0.51049462,0.51049462 0 0 0 0.021704,0.0196 c 0.0058,0.005 0.02589,0.0225 0.05995,0.0506 4.87e-4,4.1e-4 5.43e-4,1.1e-4 10e-4,5.2e-4 a 0.51049462,0.51049462 0 0 0 0.01809,0.0134 c 0.03442,0.0288 0.0701,0.0561 0.103353,0.0863 a 0.51049462,0.51049462 0 0 0 0.02791,0.03 c 1.8e-4,1.7e-4 8.55e-4,3.4e-4 0.001,5.1e-4 0.01583,0.0148 0.03798,0.0374 0.06821,0.0672 a 0.51049462,0.51049462 0 0 0 0.01705,0.0145 c 0.03118,0.0312 0.06252,0.0621 0.0925,0.0946 a 0.51049462,0.51049462 0 0 0 0.02377,0.0295 c 1.89e-4,2.1e-4 3.28e-4,8.5e-4 5.16e-4,0.001 0.01527,0.0168 0.03565,0.0406 0.0615,0.0708 a 0.51049462,0.51049462 0 0 0 0.01757,0.0176 c 0.02645,0.0315 0.05269,0.0631 0.07803,0.0956 a 0.51049462,0.51049462 0 0 0 0.0186,0.0279 c 0,0 0,5.2e-4 0,5.2e-4 0.02371,0.031 0.04632,0.0613 0.06718,0.0904 0,0 5.16e-4,5.2e-4 5.16e-4,5.2e-4 a 0.51049462,0.51049462 0 0 0 0.01344,0.016 c 0.02344,0.0334 0.04592,0.0675 0.06821,0.1018 a 0.51049462,0.51049462 0 0 0 0.01344,0.0238 c 0,0 0,5.2e-4 0,5.2e-4 0.02224,0.0347 0.04226,0.0663 0.05995,0.0961 a 0.51049462,0.51049462 0 0 0 0.02119,0.031 c 0.01555,0.0269 0.02959,0.0548 0.04444,0.0822 a 0.51049462,0.51049462 0 0 0 0.01447,0.0315 c 0.02622,0.0494 0.04683,0.0866 0.05943,0.11266 a 0.51049462,0.51049462 0 0 0 0.01033,0.0186 c 0.0233,0.0491 0.04402,0.1 0.06511,0.15038 a 0.51049462,0.51049462 0 0 0 0.0015,0.005 c 0,0 5.17e-4,5.1e-4 5.17e-4,5.1e-4 0.01903,0.0456 0.031,0.0718 0.03462,0.0811 0.03529,0.0912 0.06773,0.1839 0.0956,0.27905 0.104206,0.35316 0.53633,0.48309 0.818038,0.24598 0.06549,-0.0553 0.133272,-0.10614 0.201538,-0.15503 a 0.51049462,0.51049462 0 0 0 0.02274,-0.0145 c -0.0053,0.004 0.01559,-0.0109 0.02481,-0.017 0.0046,-0.003 -0.0039,0.003 0.0093,-0.006 v -5.1e-4 c 0.0074,-0.005 0.002,-0.001 0.01292,-0.009 a 0.51049462,0.51049462 0 0 0 0.0031,-0.003 c 0.07033,-0.0473 0.141594,-0.0913 0.214457,-0.13126 0.158546,-0.0871 0.321126,-0.1546 0.487309,-0.2036 0.02909,-0.008 0.0585,-0.0155 0.08785,-0.0227 0.04721,-0.0118 0.09483,-0.0215 0.142627,-0.03 0.03812,-0.007 0.07624,-0.0131 0.114722,-0.0176 0.04546,-0.005 0.09148,-0.008 0.137459,-0.01 0.0314,-0.002 0.06245,-0.005 0.09405,-0.005 0.03038,0 0.05985,0.003 0.08992,0.004 0.05995,0.002 0.119777,0.005 0.178284,0.0119 0.03905,0.004 0.07734,0.0109 0.115755,0.017 0.0586,0.01 0.116665,0.0203 0.173633,0.0341 0.02697,0.006 0.05402,0.0123 0.08061,0.0196 0.183301,0.0513 0.358132,0.12293 0.521932,0.21445 a 0.51049462,0.51049462 0 0 0 0.01912,0.01 c 0.688144,0.39019 1.163591,1.11109 1.233,1.95441 0.02192,0.25715 0.232494,0.45784 0.490409,0.46715 1.426799,0.053 2.556432,1.19237 2.556433,2.62878 0,1.47158 -1.178941,2.65203 -2.650484,2.65203 H 4.7275473 c -1.4715421,0 -2.6525513,-1.18045 -2.6525513,-2.65203 0,-1.3554 1.0159386,-2.42358 2.3342245,-2.58795 0.3073112,-0.0385 0.509592,-0.33957 0.4294309,-0.63873 -0.0837,-0.31288 -0.147466,-0.59156 -0.1483111,-0.8418 8.324e-4,-1.5312 1.0338504,-2.81556 2.4406778,-3.20446 a 0.51049462,0.51049462 0 0 0 0.049093,-0.0103 c 0.1911697,-0.05 0.3853886,-0.0838 0.5829102,-0.10025 0.062544,-0.005 0.1251495,-0.009 0.188619,-0.01 0.022771,-5.1e-4 0.045347,-0.002 0.068213,-0.002 z"
       id="path835-3"
       inkscape:connector-curvature="0" />
  </g>
</svg>
