<?xml version="1.0" encoding="UTF-8" standalone="no"?>
<!-- Created with Inkscape (http://www.inkscape.org/) -->

<svg
   xmlns:dc="http://purl.org/dc/elements/1.1/"
   xmlns:cc="http://creativecommons.org/ns#"
   xmlns:rdf="http://www.w3.org/1999/02/22-rdf-syntax-ns#"
   xmlns:svg="http://www.w3.org/2000/svg"
   xmlns="http://www.w3.org/2000/svg"
   xmlns:sodipodi="http://sodipodi.sourceforge.net/DTD/sodipodi-0.dtd"
   xmlns:inkscape="http://www.inkscape.org/namespaces/inkscape"
   width="40mm"
   height="40mm"
   viewBox="0 0 40 40"
   version="1.1"
   id="svg8"
   inkscape:version="0.92.1 unknown"
   sodipodi:docname="snow-shadow.svg">
  <defs
     id="defs2" />
  <sodipodi:namedview
     id="base"
     pagecolor="#ffffff"
     bordercolor="#666666"
     borderopacity="1.0"
     inkscape:pageopacity="0.0"
     inkscape:pageshadow="2"
     inkscape:zoom="0.7"
     inkscape:cx="577.01504"
     inkscape:cy="-286.57189"
     inkscape:document-units="mm"
     inkscape:current-layer="layer1"
     showgrid="false"
     inkscape:window-width="2450"
     inkscape:window-height="1564"
     inkscape:window-x="110"
     inkscape:window-y="36"
     inkscape:window-maximized="1" />
  <metadata
     id="metadata5">
    <rdf:RDF>
      <cc:Work
         rdf:about="">
        <dc:format>image/svg+xml</dc:format>
        <dc:type
           rdf:resource="http://purl.org/dc/dcmitype/StillImage" />
        <dc:title></dc:title>
      </cc:Work>
    </rdf:RDF>
  </metadata>
  <g
     inkscape:label="圖層 1"
     inkscape:groupmode="layer"
     id="layer1"
     transform="translate(0,-257)">
    <g
       transform="translate(-69.175547,9.7230177)"
       id="g8203">
      <path
         sodipodi:nodetypes="ccccssssccccc"
         style="color:#000000;font-style:normal;font-variant:normal;font-weight:normal;font-stretch:normal;font-size:medium;line-height:normal;font-family:sans-serif;font-variant-ligatures:normal;font-variant-position:normal;font-variant-caps:normal;font-variant-numeric:normal;font-variant-alternates:normal;font-feature-settings:normal;text-indent:0;text-align:start;text-decoration:none;text-decoration-line:none;text-decoration-style:solid;text-decoration-color:#000000;letter-spacing:normal;word-spacing:normal;text-transform:none;writing-mode:lr-tb;direction:ltr;text-orientation:mixed;dominant-baseline:auto;baseline-shift:baseline;text-anchor:start;white-space:normal;shape-padding:0;clip-rule:nonzero;display:inline;overflow:visible;visibility:visible;opacity:1;isolation:auto;mix-blend-mode:normal;color-interpolation:sRGB;color-interpolation-filters:linearRGB;solid-color:#000000;solid-opacity:1;vector-effect:none;fill:#3d3d3d;fill-opacity:1;fill-rule:nonzero;stroke:none;stroke-width:1;stroke-linecap:round;stroke-linejoin:round;stroke-miterlimit:4;stroke-dasharray:none;stroke-dashoffset:15;stroke-opacity:1;color-rendering:auto;image-rendering:auto;shape-rendering:auto;text-rendering:auto;enable-background:accumulate"
         d="m 94.088638,249.98998 c -3.348022,0.002 -6.176274,2.26814 -7.101564,5.42579 -1.03696,-0.87643 -2.29637,-1.45506 -3.66992,-1.45703 -3.03134,0 -5.45657,2.36646 -5.70118,5.33593 -3.30083,0.12283 -5.94922,2.79396 -5.94922,6.12501 0,3.40937 2.76062,6.16992 6.16993,6.16992 h 22.677736 c 3.40931,0 6.16992,-2.76055 6.16992,-6.16992 0,-3.14737 -2.38115,-5.6575 -5.42578,-6.03712 0.16659,-0.62269 0.32009,-1.25232 0.32227,-1.89843 0,-6.6e-4 0,-10e-4 0,-0.002 1.8e-4,-4.13235 -3.359843,-7.49236 -7.492192,-7.49219 z"
         id="rect4666-8-4"
         inkscape:connector-curvature="0" />
      <path
         inkscape:connector-curvature="0"
         id="path4555-5-2-6-2-7-9"
         d="m 78.712514,274.03405 a 0.40004,0.40004 0 0 0 -0.32814,0.60565 l 0.83457,1.44539 h -1.66863 a 0.40039499,0.40039499 0 0 0 0,0.80047 h 1.66967 l -0.83561,1.44745 a 0.40004,0.40004 0 1 0 0.69298,0.39843 l 0.83509,-1.44591 0.83509,1.44591 a 0.40004,0.40004 0 1 0 0.6935,-0.39843 l -0.83613,-1.44745 h 1.66967 a 0.40039499,0.40039499 0 0 0 0,-0.80047 h -1.66863 l 0.83509,-1.44539 a 0.40004,0.40004 0 0 0 -0.34003,-0.60565 0.40004,0.40004 0 0 0 -0.35347,0.20515 l -0.83509,1.44643 -0.83509,-1.44643 a 0.40004,0.40004 0 0 0 -0.36484,-0.20515 z"
         style="color:#000000;font-style:normal;font-variant:normal;font-weight:normal;font-stretch:normal;font-size:medium;line-height:normal;font-family:sans-serif;font-variant-ligatures:normal;font-variant-position:normal;font-variant-caps:normal;font-variant-numeric:normal;font-variant-alternates:normal;font-feature-settings:normal;text-indent:0;text-align:start;text-decoration:none;text-decoration-line:none;text-decoration-style:solid;text-decoration-color:#000000;letter-spacing:normal;word-spacing:normal;text-transform:none;writing-mode:lr-tb;direction:ltr;text-orientation:mixed;dominant-baseline:auto;baseline-shift:baseline;text-anchor:start;white-space:normal;shape-padding:0;clip-rule:nonzero;display:inline;overflow:visible;visibility:visible;opacity:1;isolation:auto;mix-blend-mode:normal;color-interpolation:sRGB;color-interpolation-filters:linearRGB;solid-color:#000000;solid-opacity:1;vector-effect:none;fill:#3d3d3d;fill-opacity:1;fill-rule:evenodd;stroke:none;stroke-width:0.80000001;stroke-linecap:round;stroke-linejoin:miter;stroke-miterlimit:4;stroke-dasharray:none;stroke-dashoffset:0;stroke-opacity:1;color-rendering:auto;image-rendering:auto;shape-rendering:auto;text-rendering:auto;enable-background:accumulate" />
      <path
         inkscape:connector-curvature="0"
         id="path4555-5-2-6-4-2-9-2"
         d="m 90.362456,279.64766 a 0.40004,0.40004 0 0 0 -0.35347,0.20516 l -0.834572,1.44642 -0.8351,-1.44642 a 0.40004,0.40004 0 0 0 -0.36328,-0.20361 0.40004,0.40004 0 0 0 -0.32815,0.60358 l 0.83458,1.44746 h -1.6707 a 0.40004,0.40004 0 0 0 -0.0388,0 0.40004,0.40004 0 0 0 0.0388,0.79892 h 1.6707 l -0.83458,1.44694 a 0.40004,0.40004 0 1 0 0.69143,0.40049 l 0.8351,-1.44694 0.834572,1.44694 a 0.400417,0.400417 0 1 0 0.6935,-0.40049 l -0.83561,-1.44694 h 1.67173 a 0.40004,0.40004 0 1 0 0,-0.79892 h -1.67173 l 0.83561,-1.44746 a 0.40004,0.40004 0 0 0 -0.34003,-0.60513 z"
         style="color:#000000;font-style:normal;font-variant:normal;font-weight:normal;font-stretch:normal;font-size:medium;line-height:normal;font-family:sans-serif;font-variant-ligatures:normal;font-variant-position:normal;font-variant-caps:normal;font-variant-numeric:normal;font-variant-alternates:normal;font-feature-settings:normal;text-indent:0;text-align:start;text-decoration:none;text-decoration-line:none;text-decoration-style:solid;text-decoration-color:#000000;letter-spacing:normal;word-spacing:normal;text-transform:none;writing-mode:lr-tb;direction:ltr;text-orientation:mixed;dominant-baseline:auto;baseline-shift:baseline;text-anchor:start;white-space:normal;shape-padding:0;clip-rule:nonzero;display:inline;overflow:visible;visibility:visible;opacity:1;isolation:auto;mix-blend-mode:normal;color-interpolation:sRGB;color-interpolation-filters:linearRGB;solid-color:#000000;solid-opacity:1;vector-effect:none;fill:#3d3d3d;fill-opacity:1;fill-rule:evenodd;stroke:none;stroke-width:0.80000001;stroke-linecap:round;stroke-linejoin:miter;stroke-miterlimit:4;stroke-dasharray:none;stroke-dashoffset:0;stroke-opacity:1;color-rendering:auto;image-rendering:auto;shape-rendering:auto;text-rendering:auto;enable-background:accumulate" />
      <path
         inkscape:connector-curvature="0"
         id="path4555-5-2-6-9-9-2-0"
         d="m 97.237487,275.12804 a 0.40004,0.40004 0 0 0 -0.32815,0.60565 l 0.83458,1.44487 h -1.66812 a 0.40049185,0.40049185 0 0 0 0,0.80098 h 1.66812 l -0.83458,1.44539 a 0.40041931,0.40041931 0 1 0 0.6935,0.4005 l 0.8351,-1.44591 0.83509,1.44591 a 0.4003312,0.4003312 0 1 0 0.69298,-0.4005 l -0.83457,-1.44539 h 1.668633 a 0.40049185,0.40049185 0 1 0 0,-0.80098 h -1.668633 l 0.83457,-1.44487 a 0.40004,0.40004 0 0 0 -0.33952,-0.60565 0.40004,0.40004 0 0 0 -0.35346,0.20516 l -0.83509,1.4459 -0.8351,-1.4459 a 0.40004,0.40004 0 0 0 -0.36535,-0.20516 z"
         style="color:#000000;font-style:normal;font-variant:normal;font-weight:normal;font-stretch:normal;font-size:medium;line-height:normal;font-family:sans-serif;font-variant-ligatures:normal;font-variant-position:normal;font-variant-caps:normal;font-variant-numeric:normal;font-variant-alternates:normal;font-feature-settings:normal;text-indent:0;text-align:start;text-decoration:none;text-decoration-line:none;text-decoration-style:solid;text-decoration-color:#000000;letter-spacing:normal;word-spacing:normal;text-transform:none;writing-mode:lr-tb;direction:ltr;text-orientation:mixed;dominant-baseline:auto;baseline-shift:baseline;text-anchor:start;white-space:normal;shape-padding:0;clip-rule:nonzero;display:inline;overflow:visible;visibility:visible;opacity:1;isolation:auto;mix-blend-mode:normal;color-interpolation:sRGB;color-interpolation-filters:linearRGB;solid-color:#000000;solid-opacity:1;vector-effect:none;fill:#3d3d3d;fill-opacity:1;fill-rule:evenodd;stroke:none;stroke-width:0.80000001;stroke-linecap:round;stroke-linejoin:miter;stroke-miterlimit:4;stroke-dasharray:none;stroke-dashoffset:0;stroke-opacity:1;color-rendering:auto;image-rendering:auto;shape-rendering:auto;text-rendering:auto;enable-background:accumulate" />
    </g>
  </g>
</svg>
