<?xml version="1.0" encoding="UTF-8" standalone="no"?>
<!-- Created with Inkscape (http://www.inkscape.org/) -->

<svg
   xmlns:dc="http://purl.org/dc/elements/1.1/"
   xmlns:cc="http://creativecommons.org/ns#"
   xmlns:rdf="http://www.w3.org/1999/02/22-rdf-syntax-ns#"
   xmlns:svg="http://www.w3.org/2000/svg"
   xmlns="http://www.w3.org/2000/svg"
   xmlns:sodipodi="http://sodipodi.sourceforge.net/DTD/sodipodi-0.dtd"
   xmlns:inkscape="http://www.inkscape.org/namespaces/inkscape"
   width="40mm"
   height="40mm"
   viewBox="0 0 40 40"
   version="1.1"
   id="svg8"
   inkscape:version="0.92.1 unknown"
   sodipodi:docname="snow-line.svg">
  <defs
     id="defs2" />
  <sodipodi:namedview
     id="base"
     pagecolor="#ffffff"
     bordercolor="#666666"
     borderopacity="1.0"
     inkscape:pageopacity="0.0"
     inkscape:pageshadow="2"
     inkscape:zoom="1.4"
     inkscape:cx="451.53014"
     inkscape:cy="-240.922"
     inkscape:document-units="mm"
     inkscape:current-layer="layer1"
     showgrid="false"
     inkscape:window-width="2450"
     inkscape:window-height="1564"
     inkscape:window-x="110"
     inkscape:window-y="36"
     inkscape:window-maximized="1" />
  <metadata
     id="metadata5">
    <rdf:RDF>
      <cc:Work
         rdf:about="">
        <dc:format>image/svg+xml</dc:format>
        <dc:type
           rdf:resource="http://purl.org/dc/dcmitype/StillImage" />
        <dc:title></dc:title>
      </cc:Work>
    </rdf:RDF>
  </metadata>
  <g
     inkscape:label="圖層 1"
     inkscape:groupmode="layer"
     id="layer1"
     transform="translate(0,-257)">
    <g
       id="g4663"
       transform="translate(-76.867573,110.81193)"
       style="fill:#ffffff;fill-opacity:1">
      <path
         style="color:#000000;font-style:normal;font-variant:normal;font-weight:normal;font-stretch:normal;font-size:medium;line-height:normal;font-family:sans-serif;font-variant-ligatures:normal;font-variant-position:normal;font-variant-caps:normal;font-variant-numeric:normal;font-variant-alternates:normal;font-feature-settings:normal;text-indent:0;text-align:start;text-decoration:none;text-decoration-line:none;text-decoration-style:solid;text-decoration-color:#000000;letter-spacing:normal;word-spacing:normal;text-transform:none;writing-mode:lr-tb;direction:ltr;text-orientation:mixed;dominant-baseline:auto;baseline-shift:baseline;text-anchor:start;white-space:normal;shape-padding:0;clip-rule:nonzero;display:inline;overflow:visible;visibility:visible;opacity:1;isolation:auto;mix-blend-mode:normal;color-interpolation:sRGB;color-interpolation-filters:linearRGB;solid-color:#000000;solid-opacity:1;vector-effect:none;fill:#ffffff;fill-opacity:1;fill-rule:nonzero;stroke:none;stroke-width:1;stroke-linecap:round;stroke-linejoin:round;stroke-miterlimit:4;stroke-dasharray:none;stroke-dashoffset:15;stroke-opacity:1;color-rendering:auto;image-rendering:auto;shape-rendering:auto;text-rendering:auto;enable-background:accumulate"
         d="m 101.78066,148.90108 c -3.348015,0.002 -6.176272,2.26814 -7.101561,5.42579 -1.036961,-0.87643 -2.296366,-1.45506 -3.669922,-1.45703 -3.031332,0 -5.456567,2.36646 -5.701172,5.33593 -3.30083,0.12283 -5.949219,2.79396 -5.949219,6.125 0,3.40937 2.760614,6.16992 6.169922,6.16992 h 22.677732 c 3.40931,0 6.16992,-2.76055 6.16992,-6.16992 0,-3.14736 -2.38115,-5.65749 -5.42578,-6.03711 0.16659,-0.62269 0.32009,-1.25232 0.32227,-1.89843 a 0.50005,0.50005 0 0 0 0,-0.002 c 1.8e-4,-4.13235 -3.35984,-7.49236 -7.49219,-7.49219 z m 0,1 c 3.59188,-1.4e-4 6.49234,2.90031 6.49219,6.49219 -0.002,0.71832 -0.12354,1.43088 -0.35938,2.10938 a 0.50005,0.50005 0 0 0 0.45704,0.66406 c 2.79406,0.0863 5.00585,2.34658 5.00585,5.16406 0,2.8726 -2.29727,5.16992 -5.16992,5.16992 H 85.528708 c -2.872652,0 -5.169922,-2.29732 -5.169922,-5.16992 0,-2.87259 2.297326,-5.16992 5.169922,-5.16992 h 0.1875 a 0.50005,0.50005 0 0 0 0.5,-0.5 c -2e-6,-2.65162 2.139654,-4.78994 4.791016,-4.79101 1.346607,0.002 2.630519,0.57069 3.537109,1.5664 a 0.50005,0.50005 0 0 0 0.861328,-0.24414 c 0.57839,-3.0698 3.251188,-5.28907 6.374999,-5.29102 z"
         id="rect4666"
         inkscape:connector-curvature="0" />
      <path
         inkscape:connector-curvature="0"
         id="path4555-5-2-6-2"
         transform="matrix(0.26458333,0,0,0.26458333,0,87)"
         d="m 326.56836,324.83203 a 1.5119622,1.5119622 0 0 0 -1.24024,2.28906 l 3.1543,5.46289 h -6.30664 a 1.5133039,1.5133039 0 0 0 0,3.0254 h 6.31055 l -3.15821,5.4707 a 1.5119622,1.5119622 0 1 0 2.61915,1.50586 l 3.15625,-5.46485 3.15625,5.46485 a 1.5119622,1.5119622 0 1 0 2.62109,-1.50586 l -3.16016,-5.4707 h 6.31055 a 1.5133039,1.5133039 0 0 0 0,-3.0254 h -6.30664 l 3.15625,-5.46289 a 1.5119622,1.5119622 0 0 0 -1.28516,-2.28906 1.5119622,1.5119622 0 0 0 -1.33593,0.77539 l -3.15625,5.4668 -3.15625,-5.4668 a 1.5119622,1.5119622 0 0 0 -1.37891,-0.77539 z"
         style="color:#000000;font-style:normal;font-variant:normal;font-weight:normal;font-stretch:normal;font-size:medium;line-height:normal;font-family:sans-serif;font-variant-ligatures:normal;font-variant-position:normal;font-variant-caps:normal;font-variant-numeric:normal;font-variant-alternates:normal;font-feature-settings:normal;text-indent:0;text-align:start;text-decoration:none;text-decoration-line:none;text-decoration-style:solid;text-decoration-color:#000000;letter-spacing:normal;word-spacing:normal;text-transform:none;writing-mode:lr-tb;direction:ltr;text-orientation:mixed;dominant-baseline:auto;baseline-shift:baseline;text-anchor:start;white-space:normal;shape-padding:0;clip-rule:nonzero;display:inline;overflow:visible;visibility:visible;opacity:1;isolation:auto;mix-blend-mode:normal;color-interpolation:sRGB;color-interpolation-filters:linearRGB;solid-color:#000000;solid-opacity:1;vector-effect:none;fill:#ffffff;fill-opacity:1;fill-rule:evenodd;stroke:none;stroke-width:3.02362204;stroke-linecap:round;stroke-linejoin:miter;stroke-miterlimit:4;stroke-dasharray:none;stroke-dashoffset:0;stroke-opacity:1;color-rendering:auto;image-rendering:auto;shape-rendering:auto;text-rendering:auto;enable-background:accumulate" />
      <path
         inkscape:connector-curvature="0"
         id="path4555-5-2-6-4-2"
         transform="matrix(0.26458333,0,0,0.26458333,0,87)"
         d="m 370.59961,346.04883 a 1.5119622,1.5119622 0 0 0 -1.33594,0.77539 l -3.15429,5.4668 -3.15626,-5.4668 a 1.5119622,1.5119622 0 0 0 -1.37304,-0.76953 1.5119622,1.5119622 0 0 0 -1.24024,2.28125 l 3.1543,5.4707 h -6.31445 a 1.5119622,1.5119622 0 0 0 -0.14649,0 1.5119622,1.5119622 0 0 0 0.14649,3.01953 h 6.31445 l -3.1543,5.46875 a 1.5119622,1.5119622 0 1 0 2.61328,1.51367 l 3.15626,-5.46875 3.15429,5.46875 a 1.5133871,1.5133871 0 1 0 2.6211,-1.51367 l -3.15821,-5.46875 h 6.31836 a 1.5119622,1.5119622 0 1 0 0,-3.01953 h -6.31836 l 3.15821,-5.4707 a 1.5119622,1.5119622 0 0 0 -1.28516,-2.28711 z"
         style="color:#000000;font-style:normal;font-variant:normal;font-weight:normal;font-stretch:normal;font-size:medium;line-height:normal;font-family:sans-serif;font-variant-ligatures:normal;font-variant-position:normal;font-variant-caps:normal;font-variant-numeric:normal;font-variant-alternates:normal;font-feature-settings:normal;text-indent:0;text-align:start;text-decoration:none;text-decoration-line:none;text-decoration-style:solid;text-decoration-color:#000000;letter-spacing:normal;word-spacing:normal;text-transform:none;writing-mode:lr-tb;direction:ltr;text-orientation:mixed;dominant-baseline:auto;baseline-shift:baseline;text-anchor:start;white-space:normal;shape-padding:0;clip-rule:nonzero;display:inline;overflow:visible;visibility:visible;opacity:1;isolation:auto;mix-blend-mode:normal;color-interpolation:sRGB;color-interpolation-filters:linearRGB;solid-color:#000000;solid-opacity:1;vector-effect:none;fill:#ffffff;fill-opacity:1;fill-rule:evenodd;stroke:none;stroke-width:3.02362204;stroke-linecap:round;stroke-linejoin:miter;stroke-miterlimit:4;stroke-dasharray:none;stroke-dashoffset:0;stroke-opacity:1;color-rendering:auto;image-rendering:auto;shape-rendering:auto;text-rendering:auto;enable-background:accumulate" />
      <path
         inkscape:connector-curvature="0"
         id="path4555-5-2-6-9-9"
         transform="matrix(0.26458333,0,0,0.26458333,0,87)"
         d="m 396.58398,328.9668 a 1.5119622,1.5119622 0 0 0 -1.24023,2.28906 l 3.1543,5.46094 h -6.30469 a 1.51367,1.51367 0 0 0 0,3.02734 h 6.30469 l -3.1543,5.46289 a 1.5133828,1.5133828 0 1 0 2.62109,1.51367 l 3.15625,-5.46484 3.15625,5.46484 a 1.5130628,1.5130628 0 1 0 2.61914,-1.51367 l -3.15429,-5.46289 h 6.30664 a 1.51367,1.51367 0 1 0 0,-3.02734 h -6.30664 l 3.15429,-5.46094 a 1.5119622,1.5119622 0 0 0 -1.2832,-2.28906 1.5119622,1.5119622 0 0 0 -1.33594,0.77539 l -3.15625,5.46484 -3.15625,-5.46484 a 1.5119622,1.5119622 0 0 0 -1.38086,-0.77539 z"
         style="color:#000000;font-style:normal;font-variant:normal;font-weight:normal;font-stretch:normal;font-size:medium;line-height:normal;font-family:sans-serif;font-variant-ligatures:normal;font-variant-position:normal;font-variant-caps:normal;font-variant-numeric:normal;font-variant-alternates:normal;font-feature-settings:normal;text-indent:0;text-align:start;text-decoration:none;text-decoration-line:none;text-decoration-style:solid;text-decoration-color:#000000;letter-spacing:normal;word-spacing:normal;text-transform:none;writing-mode:lr-tb;direction:ltr;text-orientation:mixed;dominant-baseline:auto;baseline-shift:baseline;text-anchor:start;white-space:normal;shape-padding:0;clip-rule:nonzero;display:inline;overflow:visible;visibility:visible;opacity:1;isolation:auto;mix-blend-mode:normal;color-interpolation:sRGB;color-interpolation-filters:linearRGB;solid-color:#000000;solid-opacity:1;vector-effect:none;fill:#ffffff;fill-opacity:1;fill-rule:evenodd;stroke:none;stroke-width:3.02362204;stroke-linecap:round;stroke-linejoin:miter;stroke-miterlimit:4;stroke-dasharray:none;stroke-dashoffset:0;stroke-opacity:1;color-rendering:auto;image-rendering:auto;shape-rendering:auto;text-rendering:auto;enable-background:accumulate" />
    </g>
  </g>
</svg>
